<?xml version="1.0" standalone="no"?>
<!DOCTYPE svg PUBLIC "-//W3C//DTD SVG 20010904//EN"
 "http://www.w3.org/TR/2001/REC-SVG-20010904/DTD/svg10.dtd">
<svg version="1.0" xmlns="http://www.w3.org/2000/svg"
 width="150.000000pt" height="150.000000pt" viewBox="0 0 150.000000 150.000000"
 preserveAspectRatio="xMidYMid meet">
<metadata>
Created by potrace 1.14, written by Peter Selinger 2001-2017
</metadata>
<g transform="translate(0.000000,150.000000) scale(0.100000,-0.100000)"
fill="#000000" stroke="none">
<path d="M83 1178 c-2 -5 16 -8 41 -8 l46 0 0 -270 0 -270 -47 0 c-25 0 -43
-3 -40 -6 9 -9 223 -11 244 -2 11 4 -1 7 -29 7 l-48 1 0 270 0 270 78 0 78 0
103 -272 c57 -150 108 -279 114 -286 14 -18 21 -8 51 73 14 39 41 113 61 165
63 167 107 285 112 303 4 14 17 17 64 17 l58 0 88 -157 89 -158 -1 -110 0
-110 -45 -6 c-25 -3 -40 -7 -35 -9 25 -6 237 -4 242 3 2 4 -14 7 -36 7 l-41 0
0 128 c0 123 1 131 29 183 16 30 50 92 74 139 45 83 47 85 89 91 48 7 34 10
-65 12 -37 1 -67 -1 -67 -5 0 -5 17 -8 39 -8 l38 0 -71 -135 c-39 -74 -73
-135 -76 -135 -3 0 -40 61 -82 135 l-77 135 41 0 c23 0 39 3 35 6 -8 8 -366 8
-374 0 -4 -3 13 -6 36 -6 37 0 42 -2 36 -17 -4 -10 -34 -90 -67 -178 -101
-273 -102 -274 -116 -224 -5 19 -42 116 -81 217 -39 101 -71 187 -71 192 0 6
19 10 42 10 23 0 39 3 35 6 -8 9 -488 10 -494 2z"/>
<path d="M28 493 c7 -3 16 -2 19 1 4 3 -2 6 -13 5 -11 0 -14 -3 -6 -6z"/>
<path d="M228 493 c7 -3 16 -2 19 1 4 3 -2 6 -13 5 -11 0 -14 -3 -6 -6z"/>
<path d="M268 493 c7 -3 16 -2 19 1 4 3 -2 6 -13 5 -11 0 -14 -3 -6 -6z"/>
<path d="M468 493 c7 -3 16 -2 19 1 4 3 -2 6 -13 5 -11 0 -14 -3 -6 -6z"/>
<path d="M508 493 c7 -3 16 -2 19 1 4 3 -2 6 -13 5 -11 0 -14 -3 -6 -6z"/>
<path d="M988 493 c7 -3 16 -2 19 1 4 3 -2 6 -13 5 -11 0 -14 -3 -6 -6z"/>
<path d="M1188 493 c7 -3 16 -2 19 1 4 3 -2 6 -13 5 -11 0 -14 -3 -6 -6z"/>
<path d="M1228 493 c7 -3 16 -2 19 1 4 3 -2 6 -13 5 -11 0 -14 -3 -6 -6z"/>
<path d="M442 420 c0 -14 2 -19 5 -12 2 6 2 18 0 25 -3 6 -5 1 -5 -13z"/>
<path d="M990 425 c-19 -22 -8 -50 19 -50 14 0 26 6 29 13 2 6 -1 12 -8 12 -6
0 -8 -4 -5 -10 3 -5 -3 -10 -14 -10 -24 0 -29 28 -9 48 7 7 9 12 6 12 -3 0
-11 -7 -18 -15z"/>
<path d="M1098 429 c16 -17 15 -29 -2 -29 -8 0 -17 8 -19 18 -3 9 -5 1 -6 -18
0 -19 3 -30 7 -24 4 6 15 13 25 17 9 3 17 13 17 21 0 7 -8 17 -17 21 -15 5
-16 4 -5 -6z"/>
<path d="M1164 426 c-10 -8 -16 -17 -13 -20 3 -3 14 3 24 14 21 23 17 26 -11
6z"/>
<path d="M1344 426 c-3 -8 -4 -25 -2 -38 3 -17 5 -13 9 15 5 38 2 47 -7 23z"/>
<path d="M101 398 c0 -18 3 -26 6 -18 3 8 9 17 13 20 4 3 2 11 -6 18 -12 11
-14 8 -13 -20z"/>
<path d="M191 403 c-1 -25 3 -33 17 -33 11 0 13 3 6 8 -7 4 -14 18 -17 32 -4
21 -4 20 -6 -7z"/>
<path d="M280 419 c0 -5 5 -7 10 -4 6 3 10 2 10 -2 0 -5 7 -18 15 -29 14 -17
14 -15 0 14 -15 31 -35 43 -35 21z"/>
<path d="M500 409 c0 -11 4 -18 10 -14 5 3 7 12 3 20 -7 21 -13 19 -13 -6z"/>
<path d="M551 417 c-1 -12 -6 -16 -13 -11 -10 5 -10 4 -1 -6 16 -17 26 -8 20
17 -4 17 -5 17 -6 0z"/>
<path d="M595 420 c-3 -6 1 -7 9 -4 18 7 21 14 7 14 -6 0 -13 -4 -16 -10z"/>
<path d="M707 408 c3 -15 2 -19 -4 -11 -6 9 -12 6 -22 -10 -12 -19 -12 -20 0
-11 16 12 29 12 46 1 9 -5 9 0 0 23 -13 35 -27 40 -20 8z"/>
<path d="M770 398 c0 -36 10 -32 14 6 2 14 -1 26 -5 26 -5 0 -9 -14 -9 -32z"/>
<path d="M805 406 c0 -35 10 -39 12 -5 1 16 -1 29 -5 29 -5 0 -8 -11 -7 -24z"/>
<path d="M1207 409 c4 -13 8 -18 11 -10 2 7 -1 18 -6 23 -8 8 -9 4 -5 -13z"/>
<path d="M1254 400 c1 -16 8 -26 20 -28 21 -4 36 14 35 43 -1 16 -2 15 -8 -5
-9 -33 -38 -39 -44 -8 -4 21 -4 21 -3 -2z"/>
<path d="M1376 419 c3 -6 0 -16 -7 -21 -12 -8 -11 -9 1 -5 18 4 27 37 10 37
-6 0 -8 -5 -4 -11z"/>
<path d="M142 390 c0 -14 2 -19 5 -12 2 6 2 18 0 25 -3 6 -5 1 -5 -13z"/>
<path d="M858 403 c7 -3 16 -2 19 1 4 3 -2 6 -13 5 -11 0 -14 -3 -6 -6z"/>
<path d="M266 384 c-5 -13 -4 -14 7 -6 8 7 18 8 22 4 5 -4 5 -1 1 6 -10 17
-23 15 -30 -4z"/>
<path d="M360 388 c0 -12 7 -18 23 -17 15 0 17 2 7 6 -8 3 -18 11 -22 17 -5 7
-8 4 -8 -6z"/>
<path d="M590 391 c0 -10 19 -25 25 -20 1 2 -3 10 -11 17 -8 7 -14 8 -14 3z"/>
<path d="M858 378 c6 -6 18 -8 28 -6 14 3 12 5 -9 10 -19 3 -25 2 -19 -4z"/>
<path d="M1168 378 c6 -6 18 -8 28 -6 14 3 12 5 -9 10 -19 3 -25 2 -19 -4z"/>
<path d="M76 318 c3 -4 11 -5 19 -1 21 7 19 12 -4 10 -11 0 -18 -5 -15 -9z"/>
<path d="M186 318 c3 -5 10 -6 15 -3 13 9 11 12 -6 12 -8 0 -12 -4 -9 -9z"/>
<path d="M275 320 c3 -5 8 -10 11 -10 2 0 4 5 4 10 0 6 -5 10 -11 10 -5 0 -7
-4 -4 -10z"/>
<path d="M310 326 c0 -2 7 -7 16 -10 8 -3 12 -2 9 4 -6 10 -25 14 -25 6z"/>
<path d="M426 318 c3 -5 10 -6 15 -3 13 9 11 12 -6 12 -8 0 -12 -4 -9 -9z"/>
<path d="M470 316 c4 -4 16 -4 26 2 16 9 14 10 -8 9 -15 -1 -23 -6 -18 -11z"/>
<path d="M556 318 c3 -4 11 -5 19 -1 21 7 19 12 -4 10 -11 0 -18 -5 -15 -9z"/>
<path d="M666 318 c3 -5 10 -6 15 -3 13 9 11 12 -6 12 -8 0 -12 -4 -9 -9z"/>
<path d="M756 318 c3 -4 11 -5 19 -1 21 7 19 12 -4 10 -11 0 -18 -5 -15 -9z"/>
<path d="M906 318 c3 -5 10 -6 15 -3 13 9 11 12 -6 12 -8 0 -12 -4 -9 -9z"/>
<path d="M950 316 c4 -4 16 -4 26 2 16 9 14 10 -8 9 -15 -1 -23 -6 -18 -11z"/>
<path d="M1036 318 c3 -4 11 -5 19 -1 21 7 19 12 -4 10 -11 0 -18 -5 -15 -9z"/>
<path d="M1176 318 c3 -5 10 -6 15 -3 13 9 11 12 -6 12 -8 0 -12 -4 -9 -9z"/>
<path d="M1236 318 c3 -4 11 -5 19 -1 21 7 19 12 -4 10 -11 0 -18 -5 -15 -9z"/>
<path d="M1386 318 c3 -5 10 -6 15 -3 13 9 11 12 -6 12 -8 0 -12 -4 -9 -9z"/>
<path d="M1430 316 c4 -4 16 -4 26 2 16 9 14 10 -8 9 -15 -1 -23 -6 -18 -11z"/>
</g>
</svg>
